#!OML:ASF F:\VICON\USERDATA\INSTALL\rory3\rory3.ASF
:FULLY-SPECIFIED
:DEGREES
1887
root -0.770519 17.5163 4.65417 217.242 -98.7025 -219.928
lowerback 3.49849 0.535691 0.174039
upperback -2.47514 0.74038 0.617666
thorax -4.52204 0.3681 0.485958
lowerneck -14.5923 -6.67148 -15.6953
upperneck -17.8224 -6.52693 14.9681
head -1.88754 -3.02075 7.11651
rclavicle -1.43125e-014 8.74653e-015
rhumerus 82.3497 -29.3103 -35.2992
rradius 28.6558
rwrist 14.1305
rhand -33.0127 -4.9929
rfingers 7.12502
rthumb -6.22647 -34.8814
lclavicle -1.43125e-014 8.74653e-015
lhumerus 78.0094 32.4204 31.9818
lradius 27.2967
lwrist 9.70007
lhand -7.53786 31.7529
lfingers 7.12502
lthumb 18.3535 60.9071
rfemur -6.7042 2.76968 17.6807
rtibia 39.5787
rfoot -16.038 2.52466
rtoes -2.80486
lfemur -8.53992 -2.43036 -10.5727
ltibia 42.3878
lfoot -17.6468 3.95742
ltoes -27.5585
1888
root -0.77409 17.5416 4.66597 216.075 -98.0123 -218.524
lowerback 3.63749 0.436988 -0.359737
upperback -2.59236 0.570772 0.420829
thorax -4.72511 0.297923 0.593144
lowerneck -14.2209 -6.42738 -15.6418
upperneck -18.0475 -6.25788 14.9729
head -2.04831 -2.90597 7.1457
rclavicle -2.10712e-014 7.95139e-015
rhumerus 82.905 -29.4093 -35.7389
rradius 28.4583
rwrist 14.8691
rhand -33.1871 -4.71765
rfingers 7.12502
rthumb -6.39486 -34.6011
lclavicle -2.10712e-014 7.95139e-015
lhumerus 78.2086 32.549 32.4207
lradius 27.1193
lwrist 9.68697
lhand -7.3536 32.1577
lfingers 7.12502
lthumb 18.5307 61.2951
rfemur -7.14433 2.25486 16.9346
rtibia 39.8058
rfoot -16.0802 2.11971
rtoes -4.7767
lfemur -8.34709 -2.43672 -11.3659
ltibia 41.8373
lfoot -17.2176 4.31685
ltoes -26.654
1889
root -0.776324 17.5583 4.68702 209.681 -96.8504 -211.773
lowerback 3.64673 0.426652 -1.56966
upperback -2.73587 0.464979 -0.0183317
thorax -4.88629 0.278463 0.82528
lowerneck -13.8268 -6.41396 -15.8811
upperneck -18.1734 -6.23489 15.3168
head -2.1162 -2.90307 7.31426
rclavicle 7.85199e-015 1.59028e-015
rhumerus 82.3761 -29.9634 -34.7086
rradius 28.6803
rwrist 14.4119
rhand -33.2603 -4.5923
rfingers 7.12502
rthumb -6.46548 -34.4736
lclavicle 7.85199e-015 1.59028e-015
lhumerus 78.447 32.5632 32.9644
lradius 26.9847
lwrist 9.58109
lhand -7.25551 32.2102
lfingers 7.12502
lthumb 18.6251 61.3385
rfemur -7.73749 1.70272 15.2326
rtibia 40.1597
rfoot -16.1677 2.08785
rtoes -5.08172
lfemur -8.18946 -2.43123 -13.0757
ltibia 41.2128
lfoot -16.8896 4.89703
ltoes -26.8331
1890
root -0.783915 17.5666 4.69417 209.527 -96.3935 -211.454
lowerback 3.67736 0.400824 -1.90878
upperback -2.78142 0.405128 -0.0919192
thorax -4.95243 0.259426 0.943689
lowerneck -13.6331 -6.46795 -16.0599
upperneck -18.1394 -6.30195 15.4752
head -2.10837 -2.93645 7.39511
rclavicle 5.11871e-015 7.95139e-016
rhumerus 83.0605 -30.1023 -35.2593
rradius 28.4074
rwrist 15.4129
rhand -33.3921 -4.56141
rfingers 7.12502
rthumb -6.59274 -34.4388
lclavicle 5.11871e-015 7.95139e-016
lhumerus 78.9381 32.5753 33.7487
lradius 26.7284
lwrist 9.31803
lhand -7.18505 32.2234
lfingers 7.12502
lthumb 18.6928 61.3453
rfemur -8.10557 1.34776 14.8736
rtibia 40.5092
rfoot -16.475 1.86478
rtoes -4.99345
lfemur -7.9852 -2.24968 -13.4335
ltibia 40.6343
lfoot -16.5971 5.33412
ltoes -28.9252
1891
root -0.789295 17.5728 4.70053 210.979 -96.0303 -212.692
lowerback 3.70716 0.37055 -2.02228
upperback -2.83929 0.356057 -0.0847707
thorax -5.02949 0.239932 1.01831
lowerneck -13.4506 -6.47581 -16.3403
upperneck -18.1316 -6.30128 15.5527
head -2.12057 -2.92775 7.47253
rclavicle 4.96962e-017 1.66979e-014
rhumerus 82.8595 -30.6354 -34.4989
rradius 28.5911
rwrist 15.2751
rhand -33.4946 -4.3829
rfingers 7.12502
rthumb -6.69171 -34.2572
lclavicle 4.96962e-017 1.66979e-014
lhumerus 79.624 32.605 34.7786
lradius 26.3629
lwrist 8.86944
lhand -7.11869 32.1783
lfingers 7.12502
lthumb 18.7567 61.294
rfemur -8.55055 0.956943 14.7243
rtibia 40.8315
rfoot -16.8138 1.54978
rtoes -5.81883
lfemur -7.88295 -2.07903 -13.5726
ltibia 40.1299
lfoot -16.382 5.76617
ltoes -30.3872
